<svg xmlns="http://www.w3.org/2000/svg" xmlns:xlink="http://www.w3.org/1999/xlink" version="1.1" width="141.728pt" height="158.739pt" viewBox="0 0 141.728 158.739">
<defs>
<clipPath id="clip_0">
<path transform="matrix(1,0,0,-1,0,158.739)" d="M0 158.739H141.728V0H0Z"/>
</clipPath>
</defs>
<g id="layer_1" data-name="Layer 1">
<g clip-path="url(#clip_0)">
<path transform="matrix(1,0,0,-1,103.0967,74.2859)" d="M0 0H-3.435L-2.395 1.496H.209L1.068 7.154 4.193 8.164 3.233 1.496H8.869L7.633-.28C6.349-.093 5.203 0 4.207 0H2.991L.937-13.704C.727-15.122 .62-16.118 .62-16.69 .62-17.745 .971-18.269 1.674-18.269 2.763-18.269 4.24-17.205 6.119-15.073L5.847-16.914C3.896-19.483 2.023-20.768 .227-20.768-1.48-20.768-2.335-19.512-2.335-17.007-2.335-16.113-2.222-14.924-2.006-13.438ZM-19.62-20.528-18.505-14.357-17.045-4.564C-16.896-3.576-16.818-2.721-16.818-2.003-16.818-.854-17.12-.278-17.723-.278-18.785-.278-20.305-1.784-22.284-4.799L-22.014-3.015C-19.691 .314-17.676 1.979-15.967 1.979-14.522 1.979-13.797 .878-13.797-1.326-13.797-2.302-13.889-3.388-14.069-4.574L-14.795-9.404H-14.6C-13.407-6.061-11.999-3.326-10.372-1.205-8.748 .919-7.263 1.979-5.913 1.979-5.213 1.979-4.588 1.769-4.037 1.35L-6.032-2.273C-6.621-1.753-7.121-1.493-7.533-1.493-9.481-1.493-12.082-5.321-15.323-12.975L-16.425-20.284ZM-34.001-10.488C-31.75-10.243-29.995-9.472-28.729-8.174-27.467-6.868-26.831-5.18-26.831-3.104-26.831-1.058-27.39-.033-28.507-.033-29.712-.033-30.875-1.102-32-3.236-33.125-5.367-33.789-7.785-34.001-10.488M-24.048-14.795-24.271-16.327C-27.459-19.29-30.172-20.768-32.417-20.768-33.838-20.768-34.992-20.106-35.88-18.778-36.766-17.449-37.208-15.729-37.208-13.621-37.208-9.854-36.127-6.312-33.962-2.999-31.8 .319-29.493 1.979-27.039 1.979-26.146 1.979-25.428 1.578-24.874 .78-24.323-.021-24.048-1.061-24.048-2.343-24.048-4.904-25.031-7.103-26.993-8.946-28.96-10.784-31.308-11.701-34.034-11.701L-34.047-12.609C-34.047-16.518-32.976-18.475-30.831-18.475-28.976-18.475-26.712-17.249-24.048-14.795M-38.284-14.11-38.558-15.948C-40.923-19.161-42.96-20.768-44.664-20.768-46.09-20.768-46.798-19.751-46.798-17.702-46.798-16.865-46.697-15.737-46.484-14.319L-44.419-.497C-43.698 4.338-42.334 8.1-40.331 10.795-38.328 13.482-35.893 14.829-33.018 14.829-32.016 14.829-31.109 14.689-30.312 14.409L-32.373 11.547C-33.54 12.252-34.544 12.607-35.391 12.607-36.989 12.607-38.189 11.832-38.995 10.282-39.798 8.732-40.524 5.801-41.168 1.485L-43.534-14.35C-43.763-15.884-43.879-16.886-43.879-17.352-43.879-18.193-43.583-18.615-42.99-18.615-42.316-18.615-41.016-17.424-39.085-15.05-38.936-14.862-38.668-14.548-38.284-14.11M-61.652-6.564-60.584-4.969H-58.993L-57.099 7.78C-59.153 7.78-60.818 7.044-62.096 5.568-63.375 4.096-64.008 2.17-64.008-.203L-63.995-.644-66.925-2.525C-66.665 1.583-65.471 4.593-63.342 6.506-61.213 8.419-58.002 9.379-53.708 9.379H-45.037L-46.389 3.677H-47.352C-47.221 4.215-47.156 4.745-47.156 5.268-47.156 7.013-49.2 7.883-53.299 7.883H-53.944L-55.853-4.969H-49.303L-50.788-7.002C-52.39-6.712-53.916-6.564-55.355-6.564H-56.092L-56.965-12.435C-57.698-17.37-59.111-21.313-61.207-24.262-63.306-27.214-65.749-28.685-68.529-28.685-70.035-28.685-71.376-27.936-72.561-26.429L-70.35-23.479C-69.562-25.634-68.287-26.707-66.534-26.707-64.933-26.707-63.674-25.744-62.755-23.816-61.838-21.888-61.012-18.472-60.285-13.569L-59.235-6.564Z" fill="#231f20"/>
<path transform="matrix(1,0,0,-1,113.0908,67.448)" d="M0 0H.563C.831 0 1.015 .041 1.112 .121 1.21 .201 1.262 .307 1.262 .437 1.262 .522 1.235 .6 1.189 .667 1.143 .733 1.076 .782 .994 .816 .908 .85 .754 .865 .527 .865H0ZM-.461-1.617V1.256H.525C.862 1.256 1.107 1.228 1.256 1.177 1.408 1.122 1.526 1.029 1.616 .898 1.707 .768 1.751 .625 1.751 .477 1.751 .268 1.676 .085 1.526-.072 1.377-.227 1.179-.314 .932-.332 1.032-.376 1.114-.425 1.177-.484 1.29-.598 1.432-.788 1.599-1.053L1.949-1.617H1.385L1.13-1.164C.93-.809 .768-.584 .644-.494 .562-.43 .435-.396 .272-.396H0V-1.617ZM.708 2.085C.335 2.085-.031 1.99-.387 1.797-.741 1.606-1.02 1.331-1.218 .973-1.419 .618-1.52 .244-1.52-.142-1.52-.525-1.421-.894-1.223-1.246-1.027-1.599-.752-1.874-.399-2.07-.044-2.269 .324-2.366 .708-2.366 1.092-2.366 1.462-2.269 1.814-2.07 2.17-1.874 2.443-1.599 2.639-1.246 2.834-.894 2.933-.525 2.933-.142 2.933 .244 2.834 .618 2.634 .973 2.436 1.331 2.157 1.606 1.802 1.797 1.444 1.99 1.081 2.085 .708 2.085M.708 2.528C1.156 2.528 1.594 2.412 2.021 2.183 2.448 1.954 2.78 1.624 3.018 1.197 3.257 .77 3.375 .321 3.375-.142 3.375-.603 3.257-1.043 3.022-1.468 2.788-1.893 2.459-2.222 2.036-2.456 1.614-2.69 1.171-2.809 .708-2.809 .247-2.809-.195-2.69-.62-2.456-1.043-2.222-1.372-1.893-1.609-1.468-1.844-1.043-1.962-.603-1.962-.142-1.962 .321-1.841 .77-1.602 1.197-1.364 1.624-1.03 1.954-.603 2.183-.178 2.412 .26 2.528 .708 2.528" fill="#231f20"/>
</g>
</g>
</svg>
