<?xml version="1.0" encoding="UTF-8" standalone="no" ?>
<!DOCTYPE svg PUBLIC "-//W3C//DTD SVG 1.1//EN" "http://www.w3.org/Graphics/SVG/1.1/DTD/svg11.dtd">
<svg xmlns="http://www.w3.org/2000/svg" xmlns:xlink="http://www.w3.org/1999/xlink" version="1.1" width="1280" height="720" viewBox="-180 -86.67 1280 720" xml:space="preserve">
<desc>Created with Fabric.js 5.2.4</desc>
<defs>
</defs>
<rect x="0" y="0" width="100%" height="100%" fill="transparent"></rect>
<g transform="matrix(1 0 0 1 640 360)" id="763e07f7-0969-44f6-add2-2017d382a338"  >
<rect style="stroke: none; stroke-width: 1; stroke-dasharray: none; stroke-linecap: butt; stroke-dashoffset: 0; stroke-linejoin: miter; stroke-miterlimit: 4; fill: rgb(255,255,255); fill-rule: nonzero; opacity: 1; visibility: hidden;" vector-effect="non-scaling-stroke"  x="-640" y="-360" rx="0" ry="0" width="1280" height="720" />
</g>
<g transform="matrix(Infinity NaN NaN Infinity 0 0)" id="4c7dfe21-0f64-4ffe-8ad7-dd67f8188962"  >
</g>
<g transform="matrix(NaN NaN NaN NaN 0 0)"  >
<g style=""   >
</g>
</g>
<g transform="matrix(3.6 0 0 3.6 456 266.67)"  >
<g style="" vector-effect="non-scaling-stroke"   >
		<g transform="matrix(1.33 0 0 -1.33 -3 0)" clip-path="url(#CLIPPATH_8)"  >
<clipPath id="CLIPPATH_8" >
	<path transform="matrix(1 0 0 1 -0.39 1.84) translate(-70.86, -79.37)" id="clip_0" d="M 0 158.739 L 141.728 158.739 L 141.728 0 L 0 0 Z" stroke-linecap="round" />
</clipPath>
<path style="stroke: none; stroke-width: 1; stroke-dasharray: none; stroke-linecap: butt; stroke-dashoffset: 0; stroke-linejoin: miter; stroke-miterlimit: 4; fill: rgb(35,31,32); fill-rule: nonzero; opacity: 1;" vector-effect="non-scaling-stroke"  transform=" translate(31.85, 6.93)" d="M 0 0 L -3.435 0 L -2.395 1.496 L 0.209 1.496 L 1.068 7.154 L 4.193 8.164 L 3.233 1.496 L 8.869 1.496 L 7.633 -0.28 C 6.349 -0.093 5.203 0 4.207 0 L 2.991 0 L 0.937 -13.704 C 0.727 -15.122 0.62 -16.118 0.62 -16.69 C 0.62 -17.745 0.971 -18.269 1.674 -18.269 C 2.763 -18.269 4.24 -17.205 6.119 -15.073 L 5.847 -16.914 C 3.896 -19.483 2.023 -20.768 0.227 -20.768 C -1.48 -20.768 -2.335 -19.512 -2.335 -17.007 C -2.335 -16.113 -2.222 -14.924 -2.006 -13.438 Z M -19.62 -20.528 L -18.505 -14.357 L -17.045 -4.564 C -16.896 -3.576 -16.818 -2.721 -16.818 -2.003 C -16.818 -0.854 -17.12 -0.278 -17.723 -0.278 C -18.785 -0.278 -20.305 -1.784 -22.284 -4.799 L -22.014 -3.015 C -19.691 0.314 -17.676 1.979 -15.967 1.979 C -14.522 1.979 -13.797 0.878 -13.797 -1.326 C -13.797 -2.302 -13.889 -3.388 -14.069 -4.574 L -14.795 -9.404 L -14.6 -9.404 C -13.407 -6.061 -11.999 -3.326 -10.372 -1.205 C -8.748 0.919 -7.263 1.979 -5.913 1.979 C -5.213 1.979 -4.588 1.769 -4.037 1.35 L -6.032 -2.273 C -6.621 -1.753 -7.121 -1.493 -7.533 -1.493 C -9.481 -1.493 -12.082 -5.321 -15.323 -12.975 L -16.425 -20.284 Z M -34.001 -10.488 C -31.75 -10.243 -29.995 -9.472 -28.729 -8.174 C -27.467 -6.868 -26.831 -5.18 -26.831 -3.104 C -26.831 -1.058 -27.39 -0.033 -28.507 -0.033 C -29.712 -0.033 -30.875 -1.102 -32 -3.236 C -33.125 -5.367 -33.789 -7.785 -34.001 -10.488 M -24.048 -14.795 L -24.271 -16.327 C -27.459 -19.29 -30.172 -20.768 -32.417 -20.768 C -33.838 -20.768 -34.992 -20.106 -35.88 -18.778 C -36.766 -17.449 -37.208 -15.729 -37.208 -13.621 C -37.208 -9.854 -36.127 -6.312 -33.962 -2.999 C -31.8 0.319 -29.493 1.979 -27.039 1.979 C -26.146 1.979 -25.428 1.578 -24.874 0.78 C -24.323 -0.021 -24.048 -1.061 -24.048 -2.343 C -24.048 -4.904 -25.031 -7.103 -26.993 -8.946 C -28.96 -10.784 -31.308 -11.701 -34.034 -11.701 L -34.047 -12.609 C -34.047 -16.518 -32.976 -18.475 -30.831 -18.475 C -28.976 -18.475 -26.712 -17.249 -24.048 -14.795 M -38.284 -14.11 L -38.558 -15.948 C -40.923 -19.161 -42.96 -20.768 -44.664 -20.768 C -46.09 -20.768 -46.798 -19.751 -46.798 -17.702 C -46.798 -16.865 -46.697 -15.737 -46.484 -14.319 L -44.419 -0.497 C -43.698 4.338 -42.334 8.1 -40.331 10.795 C -38.328 13.482 -35.893 14.829 -33.018 14.829 C -32.016 14.829 -31.109 14.689 -30.312 14.409 L -32.373 11.547 C -33.54 12.252 -34.544 12.607 -35.391 12.607 C -36.989 12.607 -38.189 11.832 -38.995 10.282 C -39.798 8.732 -40.524 5.801 -41.168 1.485 L -43.534 -14.35 C -43.763 -15.884 -43.879 -16.886 -43.879 -17.352 C -43.879 -18.193 -43.583 -18.615 -42.99 -18.615 C -42.316 -18.615 -41.016 -17.424 -39.085 -15.05 C -38.936 -14.862 -38.668 -14.548 -38.284 -14.11 M -61.652 -6.564 L -60.584 -4.969 L -58.993 -4.969 L -57.099 7.78 C -59.153 7.78 -60.818 7.044 -62.096 5.568 C -63.375 4.096 -64.008 2.17 -64.008 -0.203 L -63.995 -0.644 L -66.925 -2.525 C -66.665 1.583 -65.471 4.593 -63.342 6.506 C -61.213 8.419 -58.002 9.379 -53.708 9.379 L -45.037 9.379 L -46.389 3.677 L -47.352 3.677 C -47.221 4.215 -47.156 4.745 -47.156 5.268 C -47.156 7.013 -49.2 7.883 -53.299 7.883 L -53.944 7.883 L -55.853 -4.969 L -49.303 -4.969 L -50.788 -7.002 C -52.39 -6.712 -53.916 -6.564 -55.355 -6.564 L -56.092 -6.564 L -56.965 -12.435 C -57.698 -17.37 -59.111 -21.313 -61.207 -24.262 C -63.306 -27.214 -65.749 -28.685 -68.529 -28.685 C -70.035 -28.685 -71.376 -27.936 -72.561 -26.429 L -70.35 -23.479 C -69.562 -25.634 -68.287 -26.707 -66.534 -26.707 C -64.933 -26.707 -63.674 -25.744 -62.755 -23.816 C -61.838 -21.888 -61.012 -18.472 -60.285 -13.569 L -59.235 -6.564 Z" stroke-linecap="round" />
</g>
		<g transform="matrix(1.33 0 0 -1.33 53.73 -18.17)" clip-path="url(#CLIPPATH_9)"  >
<clipPath id="CLIPPATH_9" >
	<path transform="matrix(1 0 0 1 -42.93 -11.78) translate(-70.86, -79.37)" id="clip_0" d="M 0 158.739 L 141.728 158.739 L 141.728 0 L 0 0 Z" stroke-linecap="round" />
</clipPath>
<path style="stroke: none; stroke-width: 1; stroke-dasharray: none; stroke-linecap: butt; stroke-dashoffset: 0; stroke-linejoin: miter; stroke-miterlimit: 4; fill: rgb(35,31,32); fill-rule: nonzero; opacity: 1;" vector-effect="non-scaling-stroke"  transform=" translate(-0.71, 0.14)" d="M 0 0 L 0.563 0 C 0.831 0 1.015 0.041 1.112 0.121 C 1.21 0.201 1.262 0.307 1.262 0.437 C 1.262 0.522 1.235 0.6 1.189 0.667 C 1.143 0.733 1.076 0.782 0.994 0.816 C 0.908 0.85 0.754 0.865 0.527 0.865 L 0 0.865 Z M -0.461 -1.617 L -0.461 1.256 L 0.525 1.256 C 0.862 1.256 1.107 1.228 1.256 1.177 C 1.408 1.122 1.526 1.029 1.616 0.898 C 1.707 0.768 1.751 0.625 1.751 0.477 C 1.751 0.268 1.676 0.085 1.526 -0.072 C 1.377 -0.227 1.179 -0.314 0.932 -0.332 C 1.032 -0.376 1.114 -0.425 1.177 -0.484 C 1.29 -0.598 1.432 -0.788 1.599 -1.053 L 1.949 -1.617 L 1.385 -1.617 L 1.13 -1.164 C 0.93 -0.809 0.768 -0.584 0.644 -0.494 C 0.562 -0.43 0.435 -0.396 0.272 -0.396 L 0 -0.396 L 0 -1.617 Z M 0.708 2.085 C 0.335 2.085 -0.031 1.99 -0.387 1.797 C -0.741 1.606 -1.02 1.331 -1.218 0.973 C -1.419 0.618 -1.52 0.244 -1.52 -0.142 C -1.52 -0.525 -1.421 -0.894 -1.223 -1.246 C -1.027 -1.599 -0.752 -1.874 -0.399 -2.07 C -0.044 -2.269 0.324 -2.366 0.708 -2.366 C 1.092 -2.366 1.462 -2.269 1.814 -2.07 C 2.17 -1.874 2.443 -1.599 2.639 -1.246 C 2.834 -0.894 2.933 -0.525 2.933 -0.142 C 2.933 0.244 2.834 0.618 2.634 0.973 C 2.436 1.331 2.157 1.606 1.802 1.797 C 1.444 1.99 1.081 2.085 0.708 2.085 M 0.708 2.528 C 1.156 2.528 1.594 2.412 2.021 2.183 C 2.448 1.954 2.78 1.624 3.018 1.197 C 3.257 0.77 3.375 0.321 3.375 -0.142 C 3.375 -0.603 3.257 -1.043 3.022 -1.468 C 2.788 -1.893 2.459 -2.222 2.036 -2.456 C 1.614 -2.69 1.171 -2.809 0.708 -2.809 C 0.247 -2.809 -0.195 -2.69 -0.62 -2.456 C -1.043 -2.222 -1.372 -1.893 -1.609 -1.468 C -1.844 -1.043 -1.962 -0.603 -1.962 -0.142 C -1.962 0.321 -1.841 0.77 -1.602 1.197 C -1.364 1.624 -1.03 1.954 -0.603 2.183 C -0.178 2.412 0.26 2.528 0.708 2.528" stroke-linecap="round" />
</g>
</g>
</g>
</svg>