<?xml version="1.0" standalone="no"?>
<!DOCTYPE svg PUBLIC "-//W3C//DTD SVG 20010904//EN"
 "http://www.w3.org/TR/2001/REC-SVG-20010904/DTD/svg10.dtd">
<svg version="1.0" xmlns="http://www.w3.org/2000/svg"
 width="1777.000000pt" height="370.000000pt" viewBox="0 0 1777.000000 370.000000"
 preserveAspectRatio="xMidYMid meet">

<g transform="translate(0.000000,370.000000) scale(0.100000,-0.100000)"
fill="#000000" stroke="none">
<path d="M5990 3230 c-19 -19 -20 -33 -20 -515 0 -482 -1 -496 -20 -515 -18
-18 -33 -20 -167 -20 -296 0 -477 -49 -671 -183 -231 -159 -350 -410 -326
-691 28 -346 195 -602 476 -730 148 -68 173 -71 571 -71 343 0 359 1 373 19
12 17 14 217 14 1357 0 1203 -2 1339 -16 1353 -12 12 -37 16 -105 16 -76 0
-92 -3 -109 -20z m-39 -1199 c19 -23 19 -44 17 -693 l-3 -670 -29 -25 c-30
-25 -30 -25 -190 -21 -193 6 -258 23 -363 97 -131 92 -238 239 -290 396 -35
108 -43 287 -18 402 48 224 217 430 413 503 81 31 149 39 305 37 133 -2 140
-3 158 -26z"/>
<path d="M206 2988 c-14 -20 -16 -154 -16 -1239 0 -1171 1 -1217 19 -1233 17
-15 67 -16 605 -14 568 3 588 4 602 22 15 21 19 83 6 103 -19 30 -70 33 -497
33 l-434 0 -15 22 c-14 20 -16 147 -16 1160 0 1020 -2 1138 -16 1152 -12 13
-38 16 -119 16 -96 0 -105 -2 -119 -22z"/>
<path d="M11504 2200 c-48 -11 -90 -46 -112 -93 -28 -57 -482 -1527 -482
-1558 0 -14 5 -30 12 -37 18 -18 66 -14 87 7 11 11 46 103 80 209 40 123 68
195 82 208 20 18 40 19 329 19 297 0 310 -1 337 -21 23 -17 39 -53 89 -195 33
-96 64 -182 69 -192 14 -33 59 -47 153 -47 97 0 122 12 122 59 0 13 -90 267
-199 564 -110 298 -238 647 -284 775 -95 262 -109 284 -189 301 -54 12 -50 12
-94 1z m4 -331 c17 -17 235 -601 272 -726 23 -76 34 -73 -273 -73 -280 0 -297
2 -297 39 0 36 225 742 242 761 24 25 32 25 56 -1z"/>
<path d="M3255 2161 c-50 -23 -91 -70 -105 -121 -7 -26 -9 -286 -8 -775 3
-716 4 -737 22 -751 27 -19 49 -18 77 5 l24 19 5 701 c5 748 4 735 52 710 27
-14 38 -31 497 -751 335 -523 439 -679 460 -688 43 -18 78 1 91 49 7 27 10
282 8 803 -3 712 -4 766 -21 791 -23 36 -61 36 -84 0 -17 -25 -18 -72 -23
-568 -4 -471 -7 -540 -20 -540 -9 0 -164 224 -370 533 -239 359 -366 541 -390
557 -65 47 -147 57 -215 26z"/>
<path d="M6760 2164 c-52 -23 -88 -62 -110 -121 -19 -52 -20 -78 -20 -719 0
-575 2 -670 15 -701 20 -48 41 -70 90 -97 39 -20 53 -21 457 -24 287 -2 424 0
438 8 25 13 28 71 3 91 -12 11 -87 15 -347 19 -361 5 -363 6 -388 65 -15 34
-19 509 -5 557 15 54 29 57 331 64 273 7 278 8 292 30 20 30 8 73 -23 85 -13
5 -145 9 -293 9 -249 0 -269 1 -291 19 l-24 19 0 239 c0 220 2 241 20 272 11
19 33 43 48 55 27 20 43 21 361 26 262 4 336 8 349 19 24 19 22 78 -2 91 -13
6 -170 10 -443 10 -355 -1 -429 -3 -458 -16z"/>
<path d="M8363 2165 c-77 -21 -130 -51 -191 -109 -119 -111 -168 -228 -160
-383 5 -110 35 -179 107 -246 64 -60 143 -98 325 -159 214 -70 298 -124 347
-220 18 -35 21 -55 17 -122 -3 -68 -10 -91 -38 -144 -18 -35 -52 -79 -74 -98
-66 -57 -109 -64 -371 -64 -212 0 -233 -2 -248 -18 -22 -24 -21 -65 1 -85 16
-15 51 -17 283 -17 292 0 333 6 449 62 93 45 200 153 229 232 46 124 36 273
-25 396 -61 121 -153 183 -389 260 -160 52 -233 88 -296 147 -62 58 -83 112
-77 196 6 74 40 146 93 199 70 69 84 72 340 78 127 3 236 9 243 13 20 13 15
75 -7 87 -31 16 -494 12 -558 -5z"/>
<path d="M9793 2165 c-77 -21 -130 -51 -191 -109 -119 -111 -168 -228 -160
-383 5 -110 35 -179 107 -246 64 -60 143 -98 325 -159 216 -71 297 -123 347
-220 18 -35 21 -55 17 -122 -3 -68 -10 -91 -38 -144 -18 -35 -52 -79 -74 -98
-66 -57 -109 -64 -371 -64 -212 0 -233 -2 -248 -18 -22 -24 -21 -65 1 -85 16
-15 51 -17 283 -17 292 0 333 6 449 62 93 45 200 153 229 232 46 124 36 273
-25 396 -61 121 -153 183 -389 260 -160 52 -233 88 -296 147 -62 58 -83 112
-77 196 6 74 40 146 93 199 70 69 84 72 342 78 158 3 236 9 244 17 18 18 14
65 -7 80 -26 19 -488 17 -561 -2z"/>
<path d="M13907 2165 c-222 -61 -370 -258 -354 -470 15 -197 89 -274 420 -436
103 -50 165 -87 202 -120 85 -79 118 -184 95 -308 -31 -170 -140 -270 -306
-279 -112 -6 -166 20 -269 130 l-75 82 -28 -21 c-40 -30 -38 -53 8 -112 166
-210 505 -228 717 -37 195 175 215 489 42 657 -41 40 -93 71 -263 154 -230
114 -272 143 -314 213 -25 43 -27 56 -27 147 0 93 2 105 33 167 38 77 93 130
160 152 54 19 149 21 205 4 43 -13 143 -98 166 -142 16 -30 46 -34 79 -10 32
22 27 45 -20 99 -49 56 -123 105 -192 128 -60 21 -209 21 -279 2z"/>
<path d="M16468 2140 c-17 -10 -18 -60 -18 -814 0 -689 2 -805 14 -816 23 -18
714 -8 781 12 129 39 245 129 295 228 58 115 64 251 16 356 -51 111 -131 186
-238 225 -32 12 -57 26 -56 30 2 5 30 30 63 56 113 91 162 197 152 331 -13
166 -138 315 -317 374 -60 20 -88 22 -370 25 -203 2 -311 0 -322 -7z m605
-110 c158 -63 243 -223 203 -380 -26 -99 -90 -178 -177 -214 -53 -22 -163 -29
-323 -21 l-146 7 0 301 c0 271 2 302 17 320 17 18 30 19 193 15 154 -4 182 -7
233 -28z m-2 -730 c131 -24 247 -116 288 -226 62 -165 21 -319 -106 -398 -89
-56 -162 -67 -408 -64 l-210 3 -3 330 c-2 326 -2 330 19 348 18 15 44 17 194
17 95 0 197 -5 226 -10z"/>
<path d="M14895 2128 c-3 -7 -4 -375 -3 -818 l3 -805 80 0 80 0 5 767 c4 547
8 770 16 778 8 8 78 10 230 8 217 -3 219 -3 282 -32 81 -37 163 -123 188 -198
28 -82 25 -198 -8 -270 -32 -70 -96 -133 -168 -167 -52 -24 -66 -26 -237 -29
-165 -4 -183 -6 -183 -21 0 -15 531 -772 577 -823 13 -15 33 -18 109 -18 82 0
93 2 99 19 4 14 -60 112 -241 367 -135 192 -249 354 -252 362 -8 21 17 32 78
32 274 1 485 240 440 497 -28 162 -124 262 -316 330 l-79 28 -348 3 c-280 3
-348 1 -352 -10z"/>
<path d="M2025 2103 c-312 -43 -587 -286 -677 -599 -19 -65 -23 -103 -23 -219
0 -162 17 -235 86 -381 36 -76 56 -102 148 -193 87 -88 122 -114 196 -153 124
-64 214 -88 360 -95 101 -4 134 -2 208 16 402 96 670 452 644 854 -20 312
-199 572 -485 704 -126 59 -314 86 -457 66z"/>
</g>
</svg>
