<svg xmlns="http://www.w3.org/2000/svg" xmlns:xlink="http://www.w3.org/1999/xlink" version="1.1" width="463pt" height="82.5654pt" viewBox="0 0 463 82.5654">
<defs>
<clipPath id="clip_0">
<path transform="matrix(1,0,0,-1,0,82.5654)" d="M0 82.565H463V0H0Z"/>
</clipPath>
</defs>
<g id="layer_1" data-name="Layer 1">
<path transform="matrix(1,0,0,-1,0,82.5654)" d="M0 0H463V82.565H0Z" fill="#231f20"/>
<g clip-path="url(#clip_0)">
<path transform="matrix(1,0,0,-1,69.6035,42.0869)" d="M0 0C.062-3.375-2.513-2.15-5.143-3.998-5.11-1.624-6.327-.396-7.561 1.421-4.967 1.697-2.302 1.198 0 0" fill="#ed1c24" fill-rule="evenodd"/>
<path transform="matrix(1,0,0,-1,52.7031,52.7705)" d="M0 0C-2.347 .045-5.325 .793-5.159 3.746-4.915 7.884 .148 7.232 2.88 6.633 3.741 6.448 8.001 4.65 5.019 4.062 .748 3.244-1.38 5.971 0 0" fill="#ed1c24" fill-rule="evenodd"/>
<path transform="matrix(1,0,0,-1,46.4551,45.9248)" d="M0 0C-.387-1.354-1.098-12.529-4.413-9.604-8.512-5.955-4.728-.213 0 0" fill="#ed1c24" fill-rule="evenodd"/>
<path transform="matrix(1,0,0,-1,77.1689,51.9619)" d="M0 0C-1.338-2.617-3.527-5.361-5.976-7.062-5.812-4.922-5.097-1.537-6.643 .338-9.155 3.426-10.07-.877-10.287-2.582-10.199-2.451-11.723 .443-11.813 .786-12.279 2.691-10.681 4.104-9.107 4.766-4.768 6.563-1.481 4.127 0 0" fill="#ed1c24" fill-rule="evenodd"/>
<path transform="matrix(1,0,0,-1,57.6729,51.2216)" d="M0 0C0 .584-.255 1.014-.812 1.266 3.458 1.695 3.297-2.307-1.053-1.76-1.864-1.687-3.476-1.687-3.968-.896-4.789 .392-.255-.15 0 0" fill="#ed1c24" fill-rule="evenodd"/>
<path transform="matrix(1,0,0,-1,54.3135,66.1582)" d="M0 0C5.879 2.329 9.571 6.366 14.049 10.556 17.379 5.94 14.7 3.585 10.814 .734 8.478-1.007 1.479-5.647 0 0" fill="#ed1c24" fill-rule="evenodd"/>
<path transform="matrix(1,0,0,-1,61.8457,49.999)" d="M0 0C-.922 1.957-1.562 5.118-3.602 6.225-6.546 7.869-10.766 3.789-13.283 6.684-16.28 10.199-5.83 9.743-4.903 9.609 .784 8.854 .989 4.699 0 0" fill="#ed1c24" fill-rule="evenodd"/>
<path transform="matrix(1,0,0,-1,63.3594,53.2197)" d="M0 0C2.566 0-.917-5.143-1.321-5.51-3.506-7.429-5.811-9.146-8.267-10.672-11.036-12.424-12.921-9.996-15.037-7.996-17.142-5.992-16.927-4.953-16.76-2.162-14.565-2.746-12.874-2.227-10.789-2.992-6.967-4.398-3.023-2.131 0 0" fill="#ed1c24" fill-rule="evenodd"/>
<path transform="matrix(1,0,0,-1,55.8945,70.4463)" d="M0 0C-5.271 4.099-10.553 8.245-15.888 12.273-15.886 9.179-16.177 6.094-16.288 2.986-16.456-.545-16.495-.749-13.508-3.5-12.356-4.549-8.332-8.469-6.904-7.033-4.575-4.729-2.348-2.286 0 0" fill="#ed1c24"/>
<path transform="matrix(1,0,0,-1,80.1104,43.538099)" d="M0 0C-6.679 10.756-20.319 15.362-31.918 9.673-43.524 3.949-48.834-10.271-43.613-22.186-42.494-17.406-42.514-12.742-42.995-7.897-43.519-2.639-35.821-2.639-35.638 .624-35.136 7.459-25.312 5.816-20.844 5.487-18.612 5.28-14.676 5.85-12.658 4.806-10.976 3.949-9.349 2.345-7.877 1.164-4.011-1.971-1.506-4.379-.994-9.536-.549-14.161-1.846-18.946-1.646-23.67-1.601-24.549-.278-25.221 .148-24.424 1.527-22.075 2.436-19.455 2.922-16.797 3.948-11.078 2.948-5.012 0 0" fill="#ed1c24"/>
<path transform="matrix(1,0,0,-1,76.377,72.8935)" d="M0 0C.104 .436-.277 13.797-.752 13.682-9.392 7.262-18.021 .818-26.576-5.717-21.871-7.617-16.601-7.984-11.693-6.811-8.73-6.119-.902-3.459 0 0" fill="#ed1c24"/>
<path transform="matrix(1,0,0,-1,10.1074,77.0478)" d="M0 0H27.921V-3.936H-8.098L-8.099 69.27H-.002Z" fill="#ffffff"/>
<path transform="matrix(1,0,0,-1,90.6367,80.9834)" d="M0 0H-2.854V42.933C-2.854 44.827-2.443 46.321-1.621 47.438-.8 48.554 .321 49.11 1.749 49.11 3.279 49.11 4.683 48.647 5.939 47.743 7.203 46.828 8.5 45.295 9.861 43.146L29.233 11.832V48.012H32.017V.328C32.017-.358 31.957-.832 31.814-1.088 31.671-1.34 31.36-1.504 30.936-1.582 30.601-1.582 30.24-1.373 29.838-.992L28.229 1.082 3.99 40.234C3.475 41.082 3.048 41.637 2.706 41.908 2.355 42.178 1.96 42.339 1.526 42.372 1.014 42.372 .635 42.136 .381 41.637 .124 41.145-.002 40.462-.002 39.588Z" fill="#ffffff"/>
<path transform="matrix(1,0,0,-1,166.8975,36.0874)" d="M0 0H-6.739C-13.352 0-18.444-1.765-22.019-5.3-25.604-8.812-27.389-13.816-27.389-20.289-27.389-26.974-25.637-32.228-22.132-36.05-18.631-39.865-13.765-41.781-7.561-41.781H.001ZM0 3.116V33.512H6.731L6.734-44.896H-7.777C-15.738-44.896-22.156-42.64-27.039-38.115-31.9-33.587-34.335-27.655-34.335-20.316-34.335-12.651-31.816-6.827-26.782-2.864-21.746 1.125-14.246 3.116-4.273 3.116Z" fill="#ffffff"/>
<path transform="matrix(1,0,0,-1,185.168,41.622999)" d="M0 0C0 3.543 .576 5.884 1.722 6.99 2.866 8.097 5.295 8.652 8.986 8.652H29.729V5.536H12.099C9.615 5.536 8.068 5.273 7.439 4.765 6.826 4.332 6.517 3.346 6.517 1.856V-12.312H25.131V-15.279H6.517V-32.411C6.517-33.827 6.85-34.855 7.492-35.479 8.193-35.991 9.726-36.245 12.099-36.245H29.298V-39.36H8.983C5.291-39.36 2.863-38.833 1.691-37.771 .559-36.649 .003-34.29 .003-30.714Z" fill="#ffffff"/>
<path transform="matrix(1,0,0,-1,223.543,80.9834)" d="M0 0V3.115H11.448C14.978 3.115 17.605 3.881 19.341 5.393 21.079 6.902 21.946 9.178 21.946 12.199 21.946 14.539 21.4 16.4 20.33 17.757 19.264 19.127 17.448 20.195 14.886 20.969L9.528 22.664C6.02 23.656 3.332 25.197 1.436 27.291-.434 29.389-1.387 31.874-1.387 34.764-1.387 38.747-.015 41.942 2.717 44.373 5.42 46.8 9.084 48.012 13.682 48.012H24.293V44.896H13.188C10.598 44.896 8.577 44.219 7.108 42.865 5.661 41.511 4.926 39.616 4.926 37.16 4.926 34.898 5.467 33.102 6.565 31.795 7.653 30.48 9.544 29.383 12.207 28.51L16.696 27.078C20.851 25.764 23.85 24.043 25.703 21.926 27.541 19.799 28.469 17.059 28.469 13.707 28.469 9.314 26.985 5.939 24.034 3.558 21.072 1.184 16.878 0 11.448 0Z" fill="#ffffff"/>
<path transform="matrix(1,0,0,-1,358.7529,80.9834)" d="M0 0V3.115H11.439C14.973 3.115 17.604 3.881 19.338 5.393 21.073 6.902 21.94 9.178 21.94 12.199 21.94 14.539 21.401 16.4 20.323 17.757 19.251 19.127 17.438 20.195 14.882 20.969L9.528 22.664C6.012 23.656 3.326 25.197 1.431 27.291-.44 29.389-1.382 31.874-1.382 34.764-1.382 38.747-.015 41.942 2.708 44.373 5.418 46.8 9.076 48.012 13.676 48.012H24.294V44.896H13.183C10.591 44.896 8.568 44.219 7.104 42.865 5.655 41.511 4.92 39.616 4.92 37.16 4.92 34.898 5.463 33.102 6.558 31.795 7.653 30.48 9.542 29.383 12.199 28.51L16.691 27.078C20.853 25.764 23.85 24.043 25.697 21.926 27.543 19.799 28.464 17.059 28.464 13.707 28.464 9.314 26.987 5.939 24.033 3.558 21.069 1.184 16.88 0 11.439 0Z" fill="#ffffff"/>
<path transform="matrix(1,0,0,-1,259.3262,80.9834)" d="M0 0V3.115H11.45C14.99 3.115 17.631 3.881 19.354 5.393 21.091 6.902 21.965 9.178 21.965 12.199 21.965 14.539 21.43 16.4 20.353 17.757 19.271 19.127 17.45 20.195 14.893 20.969L9.537 22.664C6.029 23.656 3.347 25.197 1.454 27.291-.424 29.389-1.357 31.874-1.357 34.764-1.357 38.747 0 41.942 2.717 44.373 5.428 46.8 9.09 48.012 13.688 48.012H24.312V44.896H13.203C10.607 44.896 8.576 44.219 7.12 42.865 5.673 41.511 4.934 39.616 4.934 37.16 4.934 34.898 5.484 33.102 6.578 31.795 7.677 30.48 9.553 29.383 12.217 28.51L16.71 27.078C20.869 25.764 23.863 24.043 25.71 21.926 27.558 19.799 28.481 17.059 28.481 13.707 28.481 9.314 27.002 5.939 24.039 3.558 21.08 1.184 16.886 0 11.45 0Z" fill="#ffffff"/>
<path transform="matrix(1,0,0,-1,299.9648,64.5117)" d="M0 0H18.446L10.367 22.555C10.179 23.062 9.993 23.571 9.769 24.091 9.541 24.61 9.38 24.928 9.271 25.079 9.014 25.416 8.668 25.615 8.227 25.682 7.506 25.682 6.862 24.75 6.328 22.889 6.274 22.719 6.244 22.604 6.201 22.575ZM-5.146-16.481-8.338-16.472 5.015 28.369C5.453 29.786 6.124 30.913 7.026 31.73 7.922 32.556 8.972 32.976 10.171 32.976 11.374 32.976 12.417 32.537 13.284 31.677 14.161 30.824 15.005 29.317 15.806 27.157L31.472-16.472 24.26-16.493 19.472-3.118H-1.053Z" fill="#ffffff"/>
<path transform="matrix(1,0,0,-1,392.3477,81.0654)" d="M0 0H7.041V46.293H10.58C14.096 46.293 17.257 45.291 19.007 43.323 20.779 41.336 21.678 38.285 21.678 34.25 21.678 30.49 20.737 27.639 18.881 25.777 17.312 24.215 15.333 23.321 12.461 23.104L21.793 0 30.331 .01 19.366 24.419 20.652 24.612C23.322 25.029 25.207 25.918 26.722 27.832 28.229 29.756 28.95 32.158 28.95 35.17 28.95 39.366 27.729 42.463 25.207 44.652 22.63 46.882 18.979 48.302 13.845 48.302H0" fill="#ffffff"/>
<path transform="matrix(1,0,0,-1,439.1396,57.3134)" d="M0 0V-20.697H4.731C7.896-20.697 10.211-19.954 11.67-18.474 13.126-16.989 13.857-14.657 13.857-11.445 13.857-7.599 13.015-4.717 11.316-2.838 9.642-.942 7.047 0 3.56 0ZM0 21.393V3.043H3.683C6.802 3.043 9.075 3.771 10.502 5.226 11.913 6.686 12.629 9.035 12.629 12.282 12.629 15.391 11.842 17.683 10.254 19.162 8.695 20.65 6.277 21.393 3.042 21.393ZM6.722-23.801H-7.423V24.493H4.392C6.89 24.493 8.96 24.347 10.606 24.062 12.251 23.768 13.543 23.322 14.443 22.727 16.07 21.713 17.341 20.272 18.271 18.392 19.197 16.513 19.656 14.447 19.656 12.216 19.656 9.508 19.067 7.284 17.886 5.529 16.718 3.775 15.01 2.532 12.744 1.814 15.416 .937 17.477-.57 18.91-2.74 20.348-4.905 21.062-7.617 21.062-10.865 21.062-15.245 19.89-18.504 17.54-20.625 15.186-22.742 11.58-23.801 6.722-23.801" fill="#ffffff"/>
</g>
</g>
</svg>
